<svg xmlns="http://www.w3.org/2000/svg" viewBox="0 0 32 32" width="32" height="32">
  <rect width="32" height="32" rx="6" fill="#0f172a"/>
  <!-- B -->
  <rect x="4" y="5" width="5" height="22" rx="1.5" fill="#e2e8f0"/>
  <path d="M9,5 L16,5 Q19,5 19,9 Q19,13 16,13 L9,13 Z" fill="#e2e8f0"/>
  <path d="M9,13 L17,13 Q20,13 20,17.5 Q20,22 17,22 L9,22 Z" fill="#e2e8f0"/>
  <rect x="11" y="7" width="3" height="2.5" rx=".5" fill="#22c55e"/>
  <!-- R -->
  <rect x="22" y="5" width="5" height="22" rx="1.5" fill="#e2e8f0"/>
  <path d="M27,5 L31,5 Q34,5 34,9 Q34,13 31,13 L27,13 Z" fill="#e2e8f0"/>
  <path d="M31,13 L34,22 L32,22 L29,15 L27,15 L27,13 Z" fill="#e2e8f0"/>
  <!-- Mini green chart -->
  <rect x="14" y="20" width="2" height="3" rx=".5" fill="#22c55e" opacity=".7"/>
  <rect x="17" y="18" width="2" height="5" rx=".5" fill="#22c55e" opacity=".85"/>
  <rect x="20" y="16" width="2" height="7" rx=".5" fill="#22c55e"/>
</svg>
